<?xml version="1.0" standalone="no"?>
<!DOCTYPE svg PUBLIC "-//W3C//DTD SVG 20010904//EN"
 "http://www.w3.org/TR/2001/REC-SVG-20010904/DTD/svg10.dtd">
<svg version="1.0" xmlns="http://www.w3.org/2000/svg"
 width="200.000000pt" height="200.000000pt" viewBox="0 0 200.000000 200.000000"
 preserveAspectRatio="xMidYMid meet">
<metadata>
Created by potrace 1.11, written by Peter Selinger 2001-2013
</metadata>
<g transform="translate(0.000000,200.000000) scale(0.100000,-0.100000)"
fill="#000000" stroke="none">
<path d="M955 1920 c6 -65 5 -70 -14 -70 -10 0 -22 6 -25 13 -3 6 -4 -5 -3
-25 0 -21 -2 -40 -6 -44 -10 -11 -46 25 -65 65 -9 20 -26 47 -38 59 -19 21
-22 22 -28 7 -5 -15 -11 -13 -41 14 -20 17 -40 31 -45 31 -8 0 -5 -42 6 -77 4
-16 -1 -16 -26 -3 -17 9 -18 7 -4 -52 8 -35 21 -75 29 -90 7 -15 16 -41 20
-57 5 -24 1 -31 -27 -49 -37 -24 -39 -23 -110 43 -29 28 -63 58 -75 68 l-21
19 5 -42 6 -41 -34 20 c-49 30 -66 28 -43 -6 49 -75 58 -117 32 -150 -8 -10
-19 -8 -49 7 -21 11 -39 16 -39 12 0 -21 43 -61 78 -73 173 -56 336 -174 326
-236 -1 -7 -2 -19 -3 -27 -2 -23 -62 -75 -80 -69 -9 2 -61 27 -116 54 -55 27
-123 55 -152 63 l-52 15 9 -24 c12 -30 -5 -43 -28 -22 -9 8 -32 22 -51 32 -37
18 -36 18 12 -54 l30 -44 -28 5 -27 6 24 -22 c87 -75 115 -101 130 -124 17
-25 16 -27 -5 -50 -26 -28 -103 -65 -117 -57 -6 3 -10 4 -10 2 0 -3 33 -25 73
-50 68 -43 76 -45 127 -40 30 2 114 5 185 6 117 1 134 -2 174 -22 56 -29 91
-64 91 -92 0 -11 -15 -36 -34 -55 -29 -29 -39 -34 -67 -29 -37 7 -165 40 -192
51 -13 5 -17 1 -17 -19 0 -22 -6 -26 -42 -33 -24 -4 -46 -9 -50 -10 -5 -1 -15
-2 -23 -3 -30 -2 -14 -17 52 -50 l68 -33 -30 -13 c-27 -11 -19 -12 70 -11 107
2 172 -6 220 -28 17 -7 56 -23 88 -36 74 -29 124 -80 179 -182 24 -44 49 -91
56 -103 57 -105 277 -235 290 -171 5 22 -13 36 -48 36 -42 0 -130 52 -178 105
-49 54 -102 149 -107 193 -9 88 99 165 326 230 122 35 206 74 224 102 4 7 -6
10 -29 8 -53 -3 -58 10 -25 76 16 33 29 63 29 66 0 4 -19 4 -42 -1 -24 -4 -46
-8 -50 -9 -5 0 -8 14 -8 30 0 17 -4 30 -8 30 -10 0 -38 -32 -71 -80 -26 -38
-120 -127 -155 -147 -31 -18 -44 -16 -71 12 -50 49 -28 78 153 206 61 44 112
81 112 83 0 6 -60 -3 -92 -14 -37 -12 -35 -3 11 67 47 71 74 123 68 130 -3 2
-24 -7 -47 -22 -23 -15 -54 -27 -68 -28 -22 -2 -27 3 -33 28 -4 17 -7 24 -8
16 -1 -20 -161 -175 -201 -196 -46 -24 -63 -14 -56 34 10 71 51 142 108 187
95 75 147 97 228 95 l45 0 -28 18 -28 18 53 48 c52 47 53 48 21 41 -29 -7 -32
-5 -26 10 4 12 3 15 -5 10 -7 -4 -31 -9 -54 -12 -37 -5 -47 -1 -75 24 -18 16
-33 34 -33 41 0 7 22 36 49 64 46 50 70 86 91 143 11 28 2 26 -38 -10 -51 -46
-46 42 5 97 l28 30 -50 -28 c-27 -15 -74 -45 -104 -67 -58 -40 -69 -43 -51 -9
17 34 -3 24 -47 -21 -23 -24 -57 -75 -76 -113 -33 -66 -79 -125 -99 -125 -4 0
-16 13 -26 29 -23 37 -21 78 12 251 30 156 31 186 12 206 -13 12 -15 11 -18
-7 -2 -18 -10 -12 -42 35 -21 31 -40 56 -43 56 -2 0 -2 -31 2 -70z"/>
</g>
</svg>
